<?xml version="1.0" standalone="no"?>
<!DOCTYPE svg PUBLIC "-//W3C//DTD SVG 20010904//EN"
 "http://www.w3.org/TR/2001/REC-SVG-20010904/DTD/svg10.dtd">
<svg version="1.0" xmlns="http://www.w3.org/2000/svg"
 width="512.000000pt" height="512.000000pt" viewBox="0 0 512.000000 512.000000"
 preserveAspectRatio="xMidYMid meet">
<metadata>
Created by potrace 1.14, written by Peter Selinger 2001-2017
</metadata>
<g transform="translate(0.000000,512.000000) scale(0.100000,-0.100000)"
fill="#000000" stroke="none">
<path d="M0 2560 l0 -2560 2560 0 2560 0 0 2560 0 2560 -2560 0 -2560 0 0
-2560z m1376 1859 c116 -43 170 -122 193 -279 28 -189 41 -698 57 -2136 l6
-620 752 -18 c1418 -33 1598 -45 1736 -113 45 -23 59 -37 79 -77 22 -43 25
-63 25 -160 0 -183 -38 -236 -199 -275 -164 -41 -252 -44 -1325 -48 -1274 -6
-1464 3 -1585 70 -23 13 -78 54 -122 91 l-80 66 -6 603 c-4 331 -10 989 -13
1462 -9 1131 -3 1210 99 1321 110 121 251 162 383 113z"/>
</g>
</svg>
